<svg width="24" height="25" viewBox="0 0 24 25" fill="white" xmlns="http://www.w3.org/2000/svg">
<g id="dashboard">
<path id="Rectangle 1 (Stroke)" fill-rule="evenodd" clip-rule="evenodd" d="M11.25 5H5C4.72386 5 4.5 5.22386 4.5 5.5V19.5C4.5 19.7761 4.72386 20 5 20H11.25V5ZM5 21.5C3.89543 21.5 3 20.6046 3 19.5V5.5C3 4.39543 3.89543 3.5 5 3.5H19C20.1046 3.5 21 4.39543 21 5.5V19.5C21 20.6046 20.1046 21.5 19 21.5H5ZM19.5 12.25V19.5C19.5 19.7761 19.2761 20 19 20H12.75V12.25H19.5ZM19.5 10.75V5.5C19.5 5.22386 19.2761 5 19 5H12.75V10.75H19.5Z" fill="#0B4266"/>
</g>
</svg>
