<svg width="8" height="8" viewBox="0 0 8 8" fill="none" xmlns="http://www.w3.org/2000/svg">
<g id="Group 48095649">
<path id="Vector" d="M3.66456 1.29639H1.30065C1.12152 1.29639 0.949728 1.36754 0.823065 1.49421C0.696402 1.62087 0.625244 1.79266 0.625244 1.97179V6.69961C0.625244 6.87873 0.696402 7.05053 0.823065 7.17719C0.949728 7.30385 1.12152 7.37501 1.30065 7.37501H6.02847C6.2076 7.37501 6.37939 7.30385 6.50605 7.17719C6.63271 7.05053 6.70387 6.87873 6.70387 6.69961V4.3357" stroke="#0B4266" stroke-width="0.675403" stroke-linecap="round" stroke-linejoin="round"/>
<path id="Vector_2" d="M6.19736 0.789899C6.3317 0.655553 6.51391 0.580078 6.70391 0.580078C6.8939 0.580078 7.07611 0.655553 7.21046 0.789899C7.34481 0.924245 7.42028 1.10646 7.42028 1.29645C7.42028 1.48644 7.34481 1.66866 7.21046 1.803L4.0023 5.01116L2.65149 5.34887L2.98919 3.99806L6.19736 0.789899Z" stroke="#0B4266" stroke-width="0.675403" stroke-linecap="round" stroke-linejoin="round"/>
</g>
</svg>
