<svg width="25" height="25" viewBox="0 0 25 25" fill="blue" xmlns="http://www.w3.org/2000/svg">
<g id="Eye Close">
<path id="Vector" d="M12.3229 9.375L15.625 12.6667V12.5C15.625 11.6712 15.2958 10.8763 14.7097 10.2903C14.1236 9.70424 13.3288 9.375 12.5 9.375H12.3229ZM7.84374 10.2083L9.45832 11.8229C9.40624 12.0417 9.37499 12.2604 9.37499 12.5C9.37499 13.3288 9.70423 14.1237 10.2903 14.7097C10.8763 15.2958 11.6712 15.625 12.5 15.625C12.7292 15.625 12.9583 15.5938 13.1771 15.5417L14.7917 17.1562C14.0937 17.5 13.3229 17.7083 12.5 17.7083C11.1187 17.7083 9.79389 17.1596 8.81714 16.1828C7.84039 15.2061 7.29166 13.8813 7.29166 12.5C7.29166 11.6771 7.49999 10.9063 7.84374 10.2083ZM2.08332 4.44792L4.45832 6.82292L4.92707 7.29167C3.20832 8.64583 1.85416 10.4167 1.04166 12.5C2.84374 17.0729 7.29166 20.3125 12.5 20.3125C14.1146 20.3125 15.6562 20 17.0625 19.4375L17.5104 19.875L20.5521 22.9167L21.875 21.5938L3.40624 3.125M12.5 7.29167C13.8813 7.29167 15.2061 7.8404 16.1828 8.81715C17.1596 9.7939 17.7083 11.1187 17.7083 12.5C17.7083 13.1667 17.5729 13.8125 17.3333 14.3958L20.3854 17.4479C21.9479 16.1458 23.1979 14.4375 23.9583 12.5C22.1562 7.92708 17.7083 4.6875 12.5 4.6875C11.0417 4.6875 9.64582 4.94792 8.33332 5.41667L10.5937 7.65625C11.1875 7.42708 11.8229 7.29167 12.5 7.29167Z" fill="#8C8C8C"/>
</g>
</svg>
