<svg width="25" height="25" viewBox="0 0 30 30" fill="white" xmlns="http://www.w3.org/2000/svg">
<path d="M24.9997 12.5C24.9997 12.1685 24.868 11.8505 24.6336 11.6161C24.3992 11.3817 24.0813 11.25 23.7497 11.25C23.4182 11.25 23.1003 11.3817 22.8659 11.6161C22.6314 11.8505 22.4997 12.1685 22.4997 12.5H24.9997ZM7.49973 12.5C7.49973 12.1685 7.36804 11.8505 7.13362 11.6161C6.8992 11.3817 6.58126 11.25 6.24974 11.25C5.91821 11.25 5.60027 11.3817 5.36585 11.6161C5.13143 11.8505 4.99974 12.1685 4.99974 12.5H7.49973ZM25.366 15.8837C25.6017 16.1114 25.9175 16.2374 26.2452 16.2346C26.573 16.2317 26.8865 16.1003 27.1183 15.8685C27.35 15.6367 27.4815 15.3232 27.4843 14.9955C27.4872 14.6677 27.3612 14.352 27.1335 14.1162L25.366 15.8837ZM14.9997 3.74998L15.8835 2.86623C15.6491 2.63189 15.3312 2.50024 14.9997 2.50024C14.6683 2.50024 14.3504 2.63189 14.116 2.86623L14.9997 3.74998ZM2.86599 14.1162C2.7466 14.2315 2.65137 14.3695 2.58586 14.522C2.52035 14.6745 2.48586 14.8385 2.48442 15.0045C2.48298 15.1705 2.51461 15.335 2.57746 15.4887C2.64031 15.6423 2.73313 15.7819 2.85049 15.8992C2.96786 16.0166 3.10742 16.1094 3.26104 16.1723C3.41466 16.2351 3.57926 16.2667 3.74524 16.2653C3.91121 16.2638 4.07524 16.2294 4.22774 16.1639C4.38025 16.0983 4.51818 16.0031 4.63349 15.8837L2.86599 14.1162ZM8.74973 27.5H21.2497V25H8.74973V27.5ZM24.9997 23.75V12.5H22.4997V23.75H24.9997ZM7.49973 23.75V12.5H4.99974V23.75H7.49973ZM27.1335 14.1162L15.8835 2.86623L14.116 4.63373L25.366 15.8837L27.1335 14.1162ZM14.116 2.86623L2.86599 14.1162L4.63349 15.8837L15.8835 4.63373L14.116 2.86623ZM21.2497 27.5C22.2443 27.5 23.1981 27.1049 23.9014 26.4016C24.6046 25.6984 24.9997 24.7445 24.9997 23.75H22.4997C22.4997 24.0815 22.368 24.3994 22.1336 24.6339C21.8992 24.8683 21.5813 25 21.2497 25V27.5ZM8.74973 25C8.41821 25 8.10027 24.8683 7.86585 24.6339C7.63143 24.3994 7.49973 24.0815 7.49973 23.75H4.99974C4.99974 24.7445 5.39482 25.6984 6.09808 26.4016C6.80135 27.1049 7.75517 27.5 8.74973 27.5V25Z" fill="white"/>
</svg>
