<svg width="39" height="39" viewBox="0 0 39 39" fill="none" xmlns="http://www.w3.org/2000/svg">
<g id="mynaui--location 1">
<g id="Group">
<path id="Vector" d="M20.41 33.8325C20.1444 34.022 19.8263 34.1239 19.5 34.1239C19.1737 34.1239 18.8556 34.022 18.59 33.8325C10.7429 28.2393 2.41475 16.7343 10.8339 8.42075C13.1444 6.14594 16.2576 4.87218 19.5 4.875C22.75 4.875 25.8684 6.15063 28.1661 8.41913C36.5853 16.7326 28.2571 28.236 20.41 33.8325Z" stroke="#F47E4A" stroke-width="2.5" stroke-linecap="round" stroke-linejoin="round"/>
<path id="Vector_2" d="M19.5 19.5C20.362 19.5 21.1886 19.1576 21.7981 18.5481C22.4076 17.9386 22.75 17.112 22.75 16.25C22.75 15.388 22.4076 14.5614 21.7981 13.9519C21.1886 13.3424 20.362 13 19.5 13C18.638 13 17.8114 13.3424 17.2019 13.9519C16.5924 14.5614 16.25 15.388 16.25 16.25C16.25 17.112 16.5924 17.9386 17.2019 18.5481C17.8114 19.1576 18.638 19.5 19.5 19.5Z" stroke="#F47E4A" stroke-width="2.5" stroke-linecap="round" stroke-linejoin="round"/>
</g>
</g>
</svg>
