<svg width="504" height="504" viewBox="0 0 504 504" fill="none" xmlns="http://www.w3.org/2000/svg">
<path fill-rule="evenodd" clip-rule="evenodd" d="M251.92 -3.50723e-05C391.053 -3.50723e-05 503.84 112.789 503.84 251.924C503.84 391.051 391.053 503.851 251.92 503.851C112.787 503.851 0 391.051 0 251.924C0 112.789 112.787 -3.50723e-05 251.92 -3.50723e-05Z" fill="#4F5355"/>
<path fill-rule="evenodd" clip-rule="evenodd" d="M347.187 307.984C337.027 303.29 315.84 296.69 313.627 280.93C312.36 271.944 312.28 263.162 312.267 261.268C312.213 252.68 312.453 243.89 313.24 234.69C301.747 256.096 282.773 269.77 255.187 269.194C235.867 268.792 218.853 252.73 207.813 231.425C209.267 242.649 210.067 253.373 210.36 264.017C210.373 264.497 210.253 267.932 210.133 271.584C209.587 287.317 192.227 298.624 176.813 303.957C216.307 372.77 304.573 374.264 347.187 307.984Z" fill="url(#paint0_linear_1_136)"/>
<path fill-rule="evenodd" clip-rule="evenodd" d="M338.853 156.632C338.453 156.508 338.04 156.416 337.613 156.388C333.32 156.107 330.133 160.587 327.973 167.764C327.96 167.819 327.933 167.876 327.92 167.928C327.92 167.892 327.933 167.854 327.933 167.816C327.72 168.098 327.506 168.388 327.253 168.685C326.066 149.297 319.48 115.544 316.693 107.256C310.44 102.079 302.747 91.4759 237.013 93.4359C229.373 91.2359 208.44 107.116 208.186 107.521C205.866 111.214 202.68 118.561 200.747 129.456C194.333 165.616 197.573 155.456 195.44 168.709C195.093 168.468 194.213 167.485 193.053 166.212C192.973 165.953 192.907 165.665 192.813 165.413C190.733 159.15 187.76 155.3 183.786 155.518C182.786 155.573 181.867 155.915 181.013 156.479C175.4 160.181 173.253 174.035 177.747 187.121C182.907 202.192 186.053 215.819 193.653 215.4C198.186 215.151 198.613 211.545 198 204.887C200.28 214.22 203.613 223.376 207.947 231.721C219 253.028 236.013 269.091 255.333 269.492C282.907 270.064 301.893 256.392 313.373 234.988C317.347 227.603 320.413 219.284 322.64 210.321C322.72 213.972 323.827 215.951 327.133 216.169C334.733 216.663 338.013 203.069 343.333 188.049C348.36 173.88 345.56 158.719 338.853 156.632Z" fill="url(#paint1_linear_1_136)"/>
<path fill-rule="evenodd" clip-rule="evenodd" d="M464.173 387.691C460.453 370.077 453.813 355.184 436.76 343.771C406.853 323.757 348.453 309.171 326.6 296.237C303.067 368.064 203.867 352.784 191.733 295.091C166 304.504 97.2399 320.664 71.1066 344.384C64.3599 350.517 58.1732 368.757 56.5066 376.011L51.9598 405.144C97.9998 465.144 170.44 503.851 251.92 503.851C341.067 503.851 419.387 457.544 464.173 387.691Z" fill="url(#paint2_linear_1_136)"/>
<path fill-rule="evenodd" clip-rule="evenodd" d="M252.987 163.069C251.96 156.559 204.96 149.285 204.72 162.255C204.56 170.812 205.733 179.101 212.453 182.912C216.507 185.211 223.227 185.961 233.053 186.133C257.507 186.564 253.053 163.179 252.987 163.069ZM268.373 163.069C268.827 157.468 316.413 148.972 316.653 162.255C316.813 170.812 315.64 179.101 308.92 182.912C304.867 185.211 298.507 185.88 288.76 185.863C262.64 185.817 268.373 163.069 268.373 163.069ZM193.667 157.572C196.52 156.823 197.76 156.511 201.133 155.508C219.56 150.035 242.733 152.376 253.227 158.304C255.053 159.335 257.867 159.687 260.68 159.717C263.507 159.687 266.307 159.335 268.133 158.304C278.64 152.376 301.813 150.032 320.24 155.508C322.587 156.208 326.92 157.363 326.92 157.363L326.387 169.136L320.547 169.336C320.547 169.336 318.693 174.621 313.027 182.127C307.373 189.632 284.52 188.884 276.773 186.688C269.547 184.64 262.987 168.345 262.987 168.345C261.227 168.187 260.147 168.187 258.373 168.345C258.373 168.345 252.213 185.527 244.907 187.227C237.587 188.929 213.587 189.757 207.933 182.252C202.267 174.748 200.813 169.38 200.813 169.38C198.6 165.812 192.96 165.327 192.96 165.327C192.96 165.327 192.92 163.023 193.667 157.572Z" fill="url(#paint3_linear_1_136)"/>
<path fill-rule="evenodd" clip-rule="evenodd" d="M232.76 230.843L238.44 236.907C246.053 245.031 244.4 250.517 259.613 251.599C260.28 251.599 260.907 251.591 261.507 251.575C262.093 251.591 262.733 251.599 263.386 251.599C278.6 250.517 276.946 245.031 284.56 236.907L290.24 230.843C271.8 218.281 251.506 218.268 232.76 230.843ZM197.84 207.307C198.147 207.997 212.826 238.603 220.386 227.755C227.933 216.903 246.24 207.461 250.24 209.203C258.893 211.62 264.573 210.712 272.76 209.203C276.76 207.46 295.08 216.903 302.626 227.755C310.173 238.603 323.213 209.851 323.52 209.157C321.386 223.613 322.16 232.476 313.48 247.359C298.28 263.461 283.826 273.957 267.48 274.384C265.44 274.437 263.453 274.397 261.507 274.291C259.547 274.397 257.56 274.424 255.52 274.384C239.373 274.051 220.133 260.723 209.76 246.523C201.133 225.623 200.853 225.825 197.84 207.307Z" fill="url(#paint4_linear_1_136)"/>
<path fill-rule="evenodd" clip-rule="evenodd" d="M192.32 165.413C192.56 165.685 192.8 165.941 193.026 166.189C194.213 167.475 195.093 168.467 195.44 168.709C197.573 155.456 194.333 165.616 200.747 129.456C202.68 118.561 205.867 111.215 208.187 107.521C212.573 100.603 314.893 119.9 315.213 120.164C318 128.456 323.453 152.127 327.253 168.685C327.507 168.388 327.72 168.1 327.933 167.816C327.947 167.797 327.96 167.78 327.973 167.764C330.133 160.587 333.32 156.107 337.613 156.388C338.04 156.413 338.453 156.508 338.853 156.632C340.227 141.983 339.747 126.155 339.04 110.021C339.467 63.4345 287.413 45.1506 250.026 47.4839C184.386 51.5892 172.186 96.4773 182.226 156.464C188.213 156.464 190.773 160.788 192.32 165.413Z" fill="url(#paint5_linear_1_136)"/>
<defs>
<linearGradient id="paint0_linear_1_136" x1="255.493" y1="439.65" x2="269.43" y2="153.483" gradientUnits="userSpaceOnUse">
<stop stop-color="#FDC38B"/>
<stop offset="0.227971" stop-color="#FDC38B"/>
<stop offset="0.768999" stop-color="#FD955D"/>
<stop offset="1" stop-color="#FD955D"/>
</linearGradient>
<linearGradient id="paint1_linear_1_136" x1="175.32" y1="181.353" x2="496.155" y2="181.353" gradientUnits="userSpaceOnUse">
<stop stop-color="#FDC38B"/>
<stop offset="0.0478754" stop-color="#FDC38B"/>
<stop offset="0.532939" stop-color="#FD955D"/>
<stop offset="1" stop-color="#FD955D"/>
</linearGradient>
<linearGradient id="paint2_linear_1_136" x1="51.9598" y1="399.464" x2="464.173" y2="399.464" gradientUnits="userSpaceOnUse">
<stop stop-color="#C4F7FD"/>
<stop offset="1" stop-color="#6ADDFF"/>
</linearGradient>
<linearGradient id="paint3_linear_1_136" x1="192.96" y1="170.399" x2="326.915" y2="170.399" gradientUnits="userSpaceOnUse">
<stop stop-color="#1B4A86"/>
<stop offset="1" stop-color="#22006B"/>
</linearGradient>
<linearGradient id="paint4_linear_1_136" x1="197.84" y1="240.857" x2="323.516" y2="240.857" gradientUnits="userSpaceOnUse">
<stop stop-color="#7D1831"/>
<stop offset="1" stop-color="#5C0000"/>
</linearGradient>
<linearGradient id="paint5_linear_1_136" x1="179.12" y1="107.999" x2="339.729" y2="107.999" gradientUnits="userSpaceOnUse">
<stop stop-color="#7D1831"/>
<stop offset="1" stop-color="#5C0000"/>
</linearGradient>
</defs>
</svg>
