<svg width="505" height="513" viewBox="0 0 505 513" fill="none" xmlns="http://www.w3.org/2000/svg">
<path fill-rule="evenodd" clip-rule="evenodd" d="M252.619 8.03577e-05C113.484 8.03577e-05 0.699812 112.789 0.699812 251.923C0.699812 391.051 113.484 503.853 252.619 503.853C391.753 503.853 504.537 391.051 504.537 251.923C504.537 112.789 391.753 8.03577e-05 252.619 8.03577e-05Z" fill="url(#paint0_linear_1_204)"/>
<path fill-rule="evenodd" clip-rule="evenodd" d="M163.243 329.558C172.746 325.185 192.52 319.024 194.583 304.305C195.755 295.904 195.836 287.717 195.856 285.944C195.917 277.917 195.674 269.712 194.946 261.123C205.683 281.118 223.394 293.878 249.173 293.344C267.208 292.97 283.08 277.97 293.412 258.074C292.037 268.556 291.289 278.57 291.026 288.504C291.006 288.957 291.107 292.171 291.228 295.57C291.734 310.277 307.949 320.824 322.345 325.811C285.466 390.065 203.054 391.464 163.243 329.558Z" fill="url(#paint1_linear_1_204)"/>
<path fill-rule="evenodd" clip-rule="evenodd" d="M171.036 188.232C171.4 188.115 171.804 188.028 172.189 188.003C176.213 187.738 179.187 191.921 181.189 198.624C181.229 198.676 181.229 198.731 181.25 198.779C181.25 198.743 181.229 198.709 181.229 198.672C181.432 198.939 181.634 199.208 181.856 199.485C182.989 181.382 189.138 149.862 191.726 142.122C197.572 137.288 204.752 127.388 266.136 129.218C273.275 127.161 292.834 141.992 293.056 142.373C295.22 145.819 298.193 152.682 299.993 162.855C306 196.621 302.966 187.132 304.949 199.51C305.191 199.346 305.697 198.804 306.385 198.061C306.546 197.517 306.688 196.947 306.87 196.431C308.791 190.584 311.562 186.984 315.284 187.188C316.214 187.241 317.084 187.562 317.893 188.088C323.131 191.543 325.113 204.483 320.927 216.701C316.113 230.776 313.18 243.502 306.081 243.11C302.562 242.92 301.712 240.547 301.834 236.219C299.751 243.917 296.858 251.428 293.278 258.352C282.963 278.251 267.086 293.238 249.045 293.625C223.278 294.159 205.561 281.384 194.821 261.4C191.12 254.503 188.268 246.736 186.185 238.367C186.104 241.777 185.072 243.623 181.978 243.826C174.899 244.287 171.825 231.593 166.849 217.567C162.157 204.337 164.766 190.18 171.036 188.232Z" fill="url(#paint2_linear_1_204)"/>
<path fill-rule="evenodd" clip-rule="evenodd" d="M249.672 194.197C250.617 187.687 293.598 180.414 293.819 193.383C293.96 201.939 292.895 210.229 286.743 214.041C283.044 216.339 276.892 217.09 267.906 217.261C245.551 217.692 249.612 194.307 249.672 194.197ZM235.6 194.197C235.198 188.596 191.674 180.1 191.453 193.383C191.312 201.939 192.378 210.229 198.53 214.041C202.229 216.339 208.058 217.008 216.964 216.992C240.847 216.946 235.6 194.197 235.6 194.197ZM303.911 188.699C301.298 187.951 300.172 187.639 297.096 186.636C280.229 181.164 259.061 183.504 249.451 189.43C247.783 190.462 245.209 190.815 242.636 190.844C240.043 190.815 237.49 190.462 235.821 189.43C226.232 183.504 205.023 181.16 188.176 186.636C186.025 187.336 182.065 188.491 182.065 188.491L182.567 200.264L187.895 200.463C187.895 200.463 189.604 205.75 194.77 213.253C199.937 220.759 220.844 220.013 227.92 217.814C234.534 215.768 240.525 199.474 240.525 199.474C242.154 199.315 243.139 199.315 244.747 199.474C244.747 199.474 250.376 216.654 257.07 218.355C263.765 220.056 285.697 220.886 290.884 213.379C296.051 205.875 297.377 200.507 297.377 200.507C299.408 196.941 304.554 196.454 304.554 196.454C304.554 196.454 304.615 194.151 303.911 188.699Z" fill="url(#paint3_linear_1_204)"/>
<path fill-rule="evenodd" clip-rule="evenodd" d="M54.0114 403.999C57.4999 387.547 63.6829 373.639 79.6212 362.985C107.55 344.292 162.07 330.679 182.478 318.598C204.474 385.679 297.096 371.399 308.418 317.518C332.44 326.319 396.674 341.399 421.072 363.558C427.359 369.279 433.125 386.318 434.712 393.093L438.953 420.292C395.942 476.333 328.304 512.467 252.206 512.467C168.963 512.467 95.8311 469.239 54.0114 403.999Z" fill="url(#paint4_linear_1_204)"/>
<path fill-rule="evenodd" clip-rule="evenodd" d="M304.496 207.167C295.708 172.328 237.983 173.918 213.151 134.286C179.31 168.77 185.981 173.225 181.648 207.713C174.654 196.728 173.545 175.665 174.029 167.708C175.218 129.348 208.273 93.7229 243.787 98.143C294.438 108.203 303.287 126.343 319.069 187.372C309.495 193.562 308.507 196.345 304.496 207.167Z" fill="url(#paint5_linear_1_204)"/>
<defs>
<linearGradient id="paint0_linear_1_204" x1="-1242.07" y1="-168.644" x2="-2043.79" y2="-168.644" gradientUnits="userSpaceOnUse">
<stop stop-color="#1B4A86"/>
<stop offset="1" stop-color="#22006B"/>
</linearGradient>
<linearGradient id="paint1_linear_1_204" x1="-1419.02" y1="81.2206" x2="-1414.77" y2="-265.973" gradientUnits="userSpaceOnUse">
<stop stop-color="#FDC38B"/>
<stop offset="0.360466" stop-color="#FD955D"/>
<stop offset="1" stop-color="#FD955D"/>
</linearGradient>
<linearGradient id="paint2_linear_1_204" x1="-1311.05" y1="-177.392" x2="-1720.51" y2="-177.392" gradientUnits="userSpaceOnUse">
<stop stop-color="#FDC38B"/>
<stop offset="0.475452" stop-color="#FD955D"/>
<stop offset="1" stop-color="#FD955D"/>
</linearGradient>
<linearGradient id="paint3_linear_1_204" x1="-1297.08" y1="-185.269" x2="-1481.76" y2="-185.269" gradientUnits="userSpaceOnUse">
<stop stop-color="#1B4A86"/>
<stop offset="1" stop-color="#22006B"/>
</linearGradient>
<linearGradient id="paint4_linear_1_204" x1="-1272.37" y1="104.291" x2="-1875.43" y2="104.291" gradientUnits="userSpaceOnUse">
<stop stop-color="#C4F7FD"/>
<stop offset="1" stop-color="#6ADDFF"/>
</linearGradient>
<linearGradient id="paint5_linear_1_204" x1="-1287.49" y1="-262.003" x2="-1506.91" y2="-262.003" gradientUnits="userSpaceOnUse">
<stop stop-color="#7D1831"/>
<stop offset="1" stop-color="#5C0000"/>
</linearGradient>
</defs>
</svg>
