<svg width="504" height="504" viewBox="0 0 504 504" fill="none" xmlns="http://www.w3.org/2000/svg">
<path fill-rule="evenodd" clip-rule="evenodd" d="M251.923 -3.50723e-05C391.056 -3.50723e-05 503.845 112.789 503.845 251.923C503.845 391.051 391.056 503.851 251.923 503.851C112.789 503.851 0 391.051 0 251.923C0 112.789 112.789 -3.50723e-05 251.923 -3.50723e-05Z" fill="#F26A6A"/>
<path fill-rule="evenodd" clip-rule="evenodd" d="M172.875 270.304C149.769 180.391 179.572 45.0679 243.224 55.1439C335.081 27.1519 368.812 168.696 336.801 264.475C333.897 264.175 234.928 225.22 172.875 270.304Z" fill="url(#paint0_linear_1_167)"/>
<path fill-rule="evenodd" clip-rule="evenodd" d="M215.241 210.655C215.241 210.655 223.673 269.384 213.861 285.877C197.679 306.437 170.785 312.344 132.44 330.997C215.241 524.024 324.112 480.384 382.964 333.411C323.541 299.704 320.503 301.904 305.663 286.024C297.492 277.291 294.461 255.019 293.232 207.303L215.241 210.655Z" fill="url(#paint1_linear_1_167)"/>
<path fill-rule="evenodd" clip-rule="evenodd" d="M324.471 153.835V153.837C322.081 153.828 320.263 155.849 318.932 159.225C319.449 110.72 319.932 76.4227 257.757 76.4094C241.965 76.4094 239.053 76.1094 230.124 80.3641C204.325 92.6681 198.263 123.084 197.161 159.053C195.851 155.697 194.048 153.683 191.672 153.676C185.795 153.66 182.284 166.893 185.597 179.687C188.911 192.476 190.729 203.969 196.607 203.985C198.977 203.993 199.959 202.625 200.301 200.037C209.951 237.599 238.288 258.895 256.612 259.536C276.999 261.339 305.744 237.156 315.465 198.248C315.556 202.08 316.38 204.105 319.277 204.113C325.153 204.131 327.031 192.653 330.408 179.879C333.788 167.107 330.345 153.853 324.471 153.835Z" fill="url(#paint2_linear_1_167)"/>
<path fill-rule="evenodd" clip-rule="evenodd" d="M194.716 153.591C214.721 152.859 248.537 149.596 288.913 151.815C290.412 146.349 289.747 148.352 290.903 139.247C291.965 146.044 292.007 146.276 292.569 152.187C299.539 152.727 312.843 153.817 320.243 154.697C328.985 111.705 307.411 64.9879 251.449 64.9879C195.08 74.6386 193.541 91.8292 194.716 153.591Z" fill="url(#paint3_linear_1_167)"/>
<path fill-rule="evenodd" clip-rule="evenodd" d="M433.521 426.517L422.485 367.597C419.509 351.944 401.972 335.251 385.561 328.704C363.789 318.131 348.112 314.491 328.169 302.917C304.036 402.571 195.517 373.197 191.211 303.411C162.576 313.891 158.345 317.077 128.753 328.544C128.76 328.571 96.9826 338.877 88.9466 370.571L74.3386 430.597C119.884 475.864 182.633 503.851 251.923 503.851C323.271 503.851 387.685 474.184 433.521 426.517Z" fill="url(#paint4_linear_1_167)"/>
<defs>
<linearGradient id="paint0_linear_1_167" x1="165.096" y1="160.925" x2="348.604" y2="160.925" gradientUnits="userSpaceOnUse">
<stop stop-color="#7D1831"/>
<stop offset="1" stop-color="#5C0000"/>
</linearGradient>
<linearGradient id="paint1_linear_1_167" x1="255.441" y1="480.584" x2="259.258" y2="230.089" gradientUnits="userSpaceOnUse">
<stop stop-color="#FDC38B"/>
<stop offset="1" stop-color="#FD955D"/>
</linearGradient>
<linearGradient id="paint2_linear_1_167" x1="184.375" y1="166.487" x2="513.416" y2="173.251" gradientUnits="userSpaceOnUse">
<stop stop-color="#FDC38B"/>
<stop offset="0.697951" stop-color="#FD955D"/>
<stop offset="1" stop-color="#FD955D"/>
</linearGradient>
<linearGradient id="paint3_linear_1_167" x1="194.496" y1="109.843" x2="322.121" y2="109.843" gradientUnits="userSpaceOnUse">
<stop stop-color="#7D1831"/>
<stop offset="1" stop-color="#5C0000"/>
</linearGradient>
<linearGradient id="paint4_linear_1_167" x1="74.3386" y1="403.384" x2="433.521" y2="403.384" gradientUnits="userSpaceOnUse">
<stop stop-color="#C4F7FD"/>
<stop offset="1" stop-color="#6ADDFF"/>
</linearGradient>
</defs>
</svg>
