<svg width="504" height="504" viewBox="0 0 504 504" fill="none" xmlns="http://www.w3.org/2000/svg">
<path fill-rule="evenodd" clip-rule="evenodd" d="M251.923 -0.000151615C391.056 -0.000151615 503.845 112.786 503.845 251.917C503.845 391.051 391.056 503.84 251.923 503.84C112.789 503.84 0 391.051 0 251.917C0 112.786 112.789 -0.000151615 251.923 -0.000151615Z" fill="#F8A2EF"/>
<path fill-rule="evenodd" clip-rule="evenodd" d="M242.495 458.325C150.364 450.799 153.727 272.264 159.795 193.987C165.551 119.733 197.525 47.9065 243.229 55.1332C311.075 34.2398 349.283 111.04 354.329 191.16C359.325 270.443 382.943 466.433 242.495 458.325Z" fill="url(#paint0_linear_1_168)"/>
<path fill-rule="evenodd" clip-rule="evenodd" d="M215.247 210.653C215.247 210.653 223.677 269.38 213.865 285.867C197.681 306.439 170.788 312.336 132.447 331.001C215.247 524.02 324.117 480.381 382.967 333.407C323.543 299.696 320.507 301.893 305.665 286.02C297.497 277.279 294.467 255.015 293.235 207.293L215.247 210.653Z" fill="url(#paint1_linear_1_168)"/>
<path fill-rule="evenodd" clip-rule="evenodd" d="M324.473 153.827C322.084 153.827 320.265 155.84 318.935 159.227C319.453 110.72 319.939 76.4134 257.76 76.4C241.969 76.4 230.096 78.72 221.169 82.9733C195.585 95.1733 196.384 123.133 196.841 158.24C195.563 155.36 193.859 153.68 191.676 153.667C185.799 153.653 182.288 166.893 185.601 179.68C188.916 192.467 190.733 203.96 196.611 203.987C198.981 203.987 199.961 202.627 200.304 200.027C209.956 237.6 238.293 258.891 256.615 259.531C277.001 261.333 305.748 237.147 315.468 198.24C315.559 202.08 316.383 204.107 319.28 204.107C325.156 204.12 327.032 192.64 330.413 179.88C333.792 167.107 330.348 153.853 324.473 153.827Z" fill="url(#paint2_linear_1_168)"/>
<path fill-rule="evenodd" clip-rule="evenodd" d="M433.523 426.507L422.487 367.596C419.515 351.944 401.975 335.251 385.565 328.699C363.792 318.131 348.115 314.485 328.172 302.913C304.039 402.564 195.52 373.192 191.213 303.399C162.579 313.88 158.348 317.068 128.76 328.54C128.764 328.568 96.9867 338.868 88.952 370.561L74.3427 430.597C119.888 475.864 182.635 503.84 251.923 503.84C323.272 503.84 387.687 474.171 433.523 426.507Z" fill="url(#paint3_linear_1_168)"/>
<defs>
<linearGradient id="paint0_linear_1_168" x1="157.167" y1="255.115" x2="358.923" y2="255.115" gradientUnits="userSpaceOnUse">
<stop stop-color="#7D1831"/>
<stop offset="1" stop-color="#5C0000"/>
</linearGradient>
<linearGradient id="paint1_linear_1_168" x1="247.448" y1="440.679" x2="271.035" y2="191.271" gradientUnits="userSpaceOnUse">
<stop stop-color="#FDC38B"/>
<stop offset="1" stop-color="#FD955D"/>
</linearGradient>
<linearGradient id="paint2_linear_1_168" x1="224.315" y1="174.147" x2="540.609" y2="106.981" gradientUnits="userSpaceOnUse">
<stop stop-color="#FDC38B"/>
<stop offset="0.518832" stop-color="#FD955D"/>
<stop offset="1" stop-color="#FD955D"/>
</linearGradient>
<linearGradient id="paint3_linear_1_168" x1="74.3427" y1="403.376" x2="433.523" y2="403.376" gradientUnits="userSpaceOnUse">
<stop stop-color="#1B4A86"/>
<stop offset="1" stop-color="#22006B"/>
</linearGradient>
</defs>
</svg>
