<svg width="505" height="505" viewBox="0 0 505 505" fill="none" xmlns="http://www.w3.org/2000/svg">
<path fill-rule="evenodd" clip-rule="evenodd" d="M252.45 0.310961C113.324 0.310961 0.537355 113.1 0.537355 252.232C0.537355 391.366 113.324 504.156 252.45 504.156C391.597 504.156 504.384 391.366 504.384 252.232C504.384 113.1 391.597 0.310961 252.45 0.310961Z" fill="url(#paint0_linear_1_193)"/>
<path fill-rule="evenodd" clip-rule="evenodd" d="M281.122 261.088C334.032 214.819 377.358 61.845 256.532 62.6097C158.75 51.234 122.7 112.595 201.396 247.977C228.521 294.628 281.122 261.088 281.122 261.088Z" fill="url(#paint1_linear_1_193)"/>
<path fill-rule="evenodd" clip-rule="evenodd" d="M289.138 210.963C289.138 210.963 280.704 269.696 290.519 286.179C306.706 306.751 333.594 312.649 371.946 331.313C289.138 524.336 180.266 480.696 121.418 333.72C180.823 300.011 183.875 302.209 198.721 286.332C206.886 277.593 209.917 255.326 211.154 207.614L289.138 210.963Z" fill="url(#paint2_linear_1_193)"/>
<path fill-rule="evenodd" clip-rule="evenodd" d="M179.905 154.139C182.282 154.131 184.09 156.151 185.431 159.523C184.903 111.022 184.436 76.7255 246.609 76.7154C262.416 76.7113 265.322 76.4126 274.241 80.6672C300.025 92.9738 306.1 123.39 307.197 159.355C308.518 156 310.306 153.987 312.703 153.981C318.575 153.968 322.09 167.2 318.758 179.99C315.446 192.782 313.638 204.274 307.766 204.288C305.389 204.296 304.413 202.929 304.068 200.344C294.417 237.904 266.073 259.199 247.747 259.839C227.368 261.642 198.618 237.461 188.906 198.558C188.804 202.384 187.971 204.41 185.086 204.418C179.214 204.436 177.345 192.957 173.952 180.185C170.579 167.413 174.013 154.157 179.905 154.139Z" fill="url(#paint3_linear_1_193)"/>
<path fill-rule="evenodd" clip-rule="evenodd" d="M307.568 159.766C260.927 150.703 214.813 110.278 216.332 107.121C200.394 140.239 185.246 159.065 185.246 159.065C181.337 105.399 191.969 65.4058 247.925 65.4058C304.307 75.0579 309.026 93.9448 307.851 155.703L307.568 159.766Z" fill="url(#paint4_linear_1_193)"/>
<path fill-rule="evenodd" clip-rule="evenodd" d="M70.8446 426.816L81.8747 367.905C84.8677 352.252 102.386 335.558 118.795 329.007C140.583 318.44 156.259 314.794 176.185 303.221C200.317 402.873 308.838 373.502 313.15 303.707C341.782 314.189 346.009 317.376 375.604 328.848C375.604 328.879 407.376 339.177 415.413 370.871L430.022 430.908C384.479 476.175 321.731 504.15 252.453 504.15C181.103 504.15 116.681 474.482 70.8446 426.816Z" fill="#6AB3F2"/>
<path fill-rule="evenodd" clip-rule="evenodd" d="M298.935 162.709C299.886 200.924 246.789 187.835 254.01 163.755C254.941 157.685 298.632 150.644 298.935 162.709ZM239.69 163.846C239.245 158.636 194.907 151.012 194.765 163.373C194.32 199.49 246.547 189.569 239.69 163.846ZM307.896 157.851C291.653 153.704 268.695 150.755 253.768 159.321C252.069 160.29 249.459 160.634 246.83 160.68C244.2 160.668 241.591 160.359 239.892 159.406C219.301 150.712 202.532 153.676 185.44 158.31C185.379 161.018 185.784 158.722 185.784 163.448C188.616 164.439 190.092 166.777 191.063 170.029C199.073 196.58 238.011 194.996 244.807 168.328C245.94 168.175 247.315 168.191 248.974 168.328C249.014 171.403 254.597 180.782 262.405 185.582C267.279 188.57 274.056 189.46 279.982 189.174C288.316 188.778 296.488 183.83 302.596 169.319C304.659 165.99 304.639 164.168 308.159 163.312C308.199 162.709 307.896 157.851 307.896 157.851Z" fill="url(#paint5_linear_1_193)"/>
<defs>
<linearGradient id="paint0_linear_1_193" x1="-1288.68" y1="-568.367" x2="-2095.88" y2="-568.367" gradientUnits="userSpaceOnUse">
<stop stop-color="#1B4A86"/>
<stop offset="1" stop-color="#22006B"/>
</linearGradient>
<linearGradient id="paint1_linear_1_193" x1="-1384.41" y1="-623.507" x2="-1656.01" y2="-623.507" gradientUnits="userSpaceOnUse">
<stop stop-color="#7D1831"/>
<stop offset="1" stop-color="#5C0000"/>
</linearGradient>
<linearGradient id="paint2_linear_1_193" x1="-1526.75" y1="-249.056" x2="-1509.93" y2="-636.115" gradientUnits="userSpaceOnUse">
<stop stop-color="#FDC38B"/>
<stop offset="0.63351" stop-color="#FD955D"/>
<stop offset="1" stop-color="#FD955D"/>
</linearGradient>
<linearGradient id="paint3_linear_1_193" x1="-1370.24" y1="-589.593" x2="-1813.94" y2="-589.593" gradientUnits="userSpaceOnUse">
<stop stop-color="#FDC38B"/>
<stop offset="0.476069" stop-color="#FD955D"/>
<stop offset="1" stop-color="#FD955D"/>
</linearGradient>
<linearGradient id="paint4_linear_1_193" x1="-1339.18" y1="-667.084" x2="-1526.75" y2="-667.084" gradientUnits="userSpaceOnUse">
<stop stop-color="#7D1831"/>
<stop offset="1" stop-color="#5C0000"/>
</linearGradient>
<linearGradient id="paint5_linear_1_193" x1="-1333.06" y1="-574.905" x2="-1519.26" y2="-574.905" gradientUnits="userSpaceOnUse">
<stop stop-color="#C4F7FD"/>
<stop offset="1" stop-color="#6ADDFF"/>
</linearGradient>
</defs>
</svg>
