<svg width="505" height="505" viewBox="0 0 505 505" fill="none" xmlns="http://www.w3.org/2000/svg">
<path fill-rule="evenodd" clip-rule="evenodd" d="M252.162 0.313376C113.029 0.313376 0.242087 113.1 0.242087 252.231C0.242087 391.364 113.029 504.153 252.162 504.153C391.295 504.153 504.082 391.364 504.082 252.231C504.082 113.1 391.295 0.313376 252.162 0.313376Z" fill="#F99E4A"/>
<path fill-rule="evenodd" clip-rule="evenodd" d="M260.909 90.9933C208.549 84.1266 173.375 111.633 175.202 176.153C177.682 263.904 209.815 276.312 246.695 277.308C295.335 278.62 317.335 237.247 320.229 194.9C323.669 144.74 302.282 91.0866 260.909 90.9933Z" fill="url(#paint0_linear_1_178)"/>
<path fill-rule="evenodd" clip-rule="evenodd" d="M289.056 247.407C289.056 247.407 280.562 306.469 290.442 323.056C306.709 343.748 333.762 349.677 372.335 368.451C289.055 562.588 179.549 518.697 120.362 370.868C180.122 336.967 183.175 339.176 198.109 323.211C206.322 314.419 209.362 292.023 210.602 244.033L289.056 247.407Z" fill="url(#paint1_linear_1_178)"/>
<path fill-rule="evenodd" clip-rule="evenodd" d="M179.189 190.26C181.589 190.247 183.415 192.273 184.749 195.66C184.242 146.887 183.762 112.393 246.282 112.38H246.295C262.175 112.38 265.095 112.073 274.082 116.353C300.029 128.74 306.122 159.327 307.229 195.5C308.549 192.127 310.362 190.1 312.762 190.1C318.669 190.073 322.202 203.38 318.869 216.26C315.522 229.113 313.695 240.687 307.789 240.7C305.402 240.7 304.415 239.327 304.082 236.713C294.375 274.5 265.869 295.924 247.442 296.564C226.935 298.38 198.029 274.064 188.242 234.94C188.149 238.78 187.322 240.82 184.415 240.82C178.495 240.847 176.615 229.3 173.215 216.447C169.815 203.607 173.282 190.273 179.189 190.26Z" fill="url(#paint2_linear_1_178)"/>
<path fill-rule="evenodd" clip-rule="evenodd" d="M260.749 115.167C187.749 114.633 181.656 46.3934 249.522 46.6467C283.722 46.7 327.762 89.9801 260.749 115.167Z" fill="url(#paint3_linear_1_178)"/>
<path fill-rule="evenodd" clip-rule="evenodd" d="M75.6152 431.92L80.6019 405.255C83.6019 389.512 101.242 372.723 117.735 366.136C139.642 355.507 155.415 351.839 175.469 340.201C199.735 440.427 308.882 410.889 313.215 340.687C342.029 351.232 346.282 354.436 376.029 365.975C376.029 366.004 407.989 376.365 416.069 408.237L423.135 437.236C378.215 478.764 318.162 504.153 252.162 504.153C183.389 504.153 121.069 476.589 75.6152 431.92Z" fill="url(#paint4_linear_1_178)"/>
<path fill-rule="evenodd" clip-rule="evenodd" d="M304.349 202.753C296.042 169.82 241.482 171.327 218.029 133.873C186.055 166.46 192.349 170.673 188.242 203.26C181.655 192.887 180.602 172.98 181.055 165.46C182.189 129.22 213.415 95.5533 246.975 99.7267C294.829 109.233 303.189 126.367 318.109 184.047C309.069 189.887 308.122 192.527 304.349 202.753Z" fill="url(#paint5_linear_1_178)"/>
<defs>
<linearGradient id="paint0_linear_1_178" x1="320.589" y1="183.647" x2="175.138" y2="183.647" gradientUnits="userSpaceOnUse">
<stop stop-color="#7D1831"/>
<stop offset="1" stop-color="#5C0000"/>
</linearGradient>
<linearGradient id="paint1_linear_1_178" x1="247.962" y1="493.089" x2="244.649" y2="241.14" gradientUnits="userSpaceOnUse">
<stop stop-color="#FDC38B"/>
<stop offset="1" stop-color="#FD955D"/>
</linearGradient>
<linearGradient id="paint2_linear_1_178" x1="297.615" y1="206.3" x2="22.9233" y2="195.875" gradientUnits="userSpaceOnUse">
<stop stop-color="#FDC38B"/>
<stop offset="0.697951" stop-color="#FD955D"/>
<stop offset="1" stop-color="#FD955D"/>
</linearGradient>
<linearGradient id="paint3_linear_1_178" x1="295.669" y1="80.9134" x2="202.116" y2="80.9134" gradientUnits="userSpaceOnUse">
<stop stop-color="#7D1831"/>
<stop offset="1" stop-color="#5C0000"/>
</linearGradient>
<linearGradient id="paint4_linear_1_178" x1="423.135" y1="422.177" x2="75.6192" y2="422.177" gradientUnits="userSpaceOnUse">
<stop stop-color="#1B4A86"/>
<stop offset="1" stop-color="#22006B"/>
</linearGradient>
<linearGradient id="paint5_linear_1_178" x1="318.109" y1="151.313" x2="180.955" y2="151.313" gradientUnits="userSpaceOnUse">
<stop stop-color="#7D1831"/>
<stop offset="1" stop-color="#5C0000"/>
</linearGradient>
</defs>
</svg>
