<svg width="504" height="505" viewBox="0 0 504 505" fill="none" xmlns="http://www.w3.org/2000/svg">
<path fill-rule="evenodd" clip-rule="evenodd" d="M252.001 0.313376C112.867 0.313376 0.0820287 113.1 0.0820287 252.231C0.0820287 391.364 112.867 504.153 252.001 504.153C391.134 504.153 503.923 391.364 503.923 252.231C503.923 113.1 391.134 0.313376 252.001 0.313376Z" fill="#F6F963"/>
<path fill-rule="evenodd" clip-rule="evenodd" d="M40.2232 388.724C40.2232 367.172 42.8939 338.809 49.7845 329.947C58.1485 319.189 172.011 284.793 193.959 271.863C217.597 343.691 298.867 331.931 311.055 274.229C336.89 283.647 409.19 307.252 449.865 328.768C457.941 333.04 462.071 391.127 462.071 391.127C416.97 459.196 339.695 504.095 251.925 504.095C163.558 504.095 85.8326 458.588 40.8659 389.743L40.2232 388.724Z" fill="url(#paint0_linear_1_169)"/>
<path fill-rule="evenodd" clip-rule="evenodd" d="M261.889 308.139C254.251 308.272 246.35 310.547 238.979 308.54C182.855 293.251 200.887 257.736 200.887 257.736C200.887 257.736 201.017 252.04 201.038 249.167C201.101 240.58 200.858 231.793 200.065 222.593C211.555 243.993 230.535 257.671 258.121 257.096C277.437 256.694 294.447 240.633 305.497 219.327C304.041 230.553 304.574 243.487 304.286 254.124C304.257 255.164 304.009 279.906 303.99 280.946C291.786 304.059 276.358 305.188 261.889 308.139Z" fill="url(#paint1_linear_1_169)"/>
<path fill-rule="evenodd" clip-rule="evenodd" d="M290.493 453.241C286.059 429.799 261.005 342.723 261.005 342.723L273.094 323L264.022 310.303L243.546 310.743L233.238 322.732L245.056 343.076C239.006 376.029 226.794 419.336 220.241 453.14C205.382 401.079 194.786 387.04 191.963 318.673C191.959 318.619 186.002 283.264 185.999 283.207C193.467 273.523 200.755 256.839 200.755 256.839C200.766 256.819 227.219 297.245 242.123 308.54C249.76 308.407 257.395 308.272 265.033 308.139C282.162 293.391 304.233 258.395 304.233 258.395L324.303 287.061C324.303 287.061 308.738 378.227 290.493 453.241Z" fill="white"/>
<path fill-rule="evenodd" clip-rule="evenodd" d="M233.238 322.732L243.546 310.743L264.022 310.303L273.094 323L261.005 342.723C261.005 342.723 286.059 429.799 290.495 453.241C290.962 455.709 291.203 457.477 291.157 458.359C289.954 466.413 285.194 483.053 278.158 502.739C269.534 503.629 260.783 504.095 251.925 504.095C245.681 504.095 239.494 503.857 233.363 503.412C227.797 487.801 222.874 471.684 219.413 457.447C219.673 456.037 219.959 454.583 220.241 453.14C226.794 419.336 239.006 376.029 245.057 343.076L233.238 322.732Z" fill="#6AB3F2"/>
<path fill-rule="evenodd" clip-rule="evenodd" d="M174.59 144.233C174.99 144.113 175.403 144.02 175.83 143.993C180.131 143.713 183.311 148.193 185.475 155.367C185.493 155.42 185.506 155.473 185.522 155.527C185.519 155.487 185.517 155.46 185.515 155.42C185.73 155.7 185.945 155.993 186.186 156.287C187.383 136.9 193.969 103.153 196.754 94.86C203.003 89.6867 210.703 79.0735 276.431 81.0335C284.07 78.8335 305.001 94.7267 305.258 95.1267C307.586 98.82 310.762 106.167 312.697 117.06C319.114 153.22 315.875 143.06 317.998 156.313C318.105 156.233 318.271 156.087 318.465 155.887C318.727 154.887 319.002 153.927 319.301 153.02C321.381 146.753 324.353 142.9 328.327 143.127C329.327 143.18 330.257 143.513 331.107 144.087C336.719 147.78 338.862 161.633 334.377 174.727C329.206 189.793 326.062 203.42 318.465 203.007C315.419 202.833 314.258 201.127 313.986 198.02C311.81 205.42 308.963 212.633 305.497 219.327C294.447 240.633 277.438 256.693 258.121 257.096C230.535 257.671 211.555 243.993 200.065 222.593C196.099 215.207 193.037 206.887 190.81 197.927C190.723 201.58 189.623 203.553 186.307 203.767C178.715 204.26 175.434 190.673 170.107 175.66C165.085 161.487 167.883 146.327 174.59 144.233Z" fill="url(#paint2_linear_1_169)"/>
<path fill-rule="evenodd" clip-rule="evenodd" d="M278.158 502.739C286.029 501.923 293.791 500.74 301.431 499.217C325.049 451.828 352.118 394.344 359.987 363.625L341.938 342.233L338.953 338.696L343.51 337.92L364.142 334.399L304.233 258.395C304.233 258.395 306.829 377.788 290.495 453.241C289.837 456.283 282.597 482.147 278.158 502.739ZM151.321 367.416L170.673 344.481L147.309 333.043C147.309 333.043 194.634 264.548 200.755 256.839C203.578 325.205 208.358 400.32 220.241 453.14C220.811 455.675 227.797 487.801 233.363 503.412C224.174 502.743 215.122 501.579 206.231 499.949C199.687 490.365 165.275 411.544 149.53 369.539L151.321 367.416Z" fill="url(#paint3_linear_1_169)"/>
<path fill-rule="evenodd" clip-rule="evenodd" d="M321.131 153.02C320.879 153.287 320.645 153.54 320.415 153.793C319.238 155.073 318.358 156.073 317.998 156.313C315.875 143.06 319.114 153.22 312.697 117.06C310.762 106.167 307.586 98.8201 305.259 95.1268C300.877 88.2068 198.554 107.5 198.233 107.767C195.45 116.06 189.99 139.727 186.186 156.287C185.945 155.993 185.73 155.7 185.515 155.42C185.503 155.407 185.489 155.38 185.475 155.367C183.311 148.194 180.131 143.713 175.829 143.993C175.403 144.02 174.99 144.114 174.59 144.234C173.215 129.594 173.699 113.753 174.405 97.6201C173.974 51.0335 226.035 32.7535 263.414 35.0868C329.062 39.1935 341.257 84.0735 331.219 144.074C325.235 144.074 322.666 148.393 321.131 153.02Z" fill="url(#paint4_linear_1_169)"/>
<defs>
<linearGradient id="paint0_linear_1_169" x1="477.487" y1="388.957" x2="-408.963" y2="385.553" gradientUnits="userSpaceOnUse">
<stop stop-color="#1B4A86"/>
<stop offset="1" stop-color="#22006B"/>
</linearGradient>
<linearGradient id="paint1_linear_1_169" x1="247.338" y1="422.247" x2="252.038" y2="237.084" gradientUnits="userSpaceOnUse">
<stop stop-color="#FDC38B"/>
<stop offset="0.272008" stop-color="#FDC38B"/>
<stop offset="1" stop-color="#FD955D"/>
</linearGradient>
<linearGradient id="paint2_linear_1_169" x1="282.855" y1="168.953" x2="22.6687" y2="168.953" gradientUnits="userSpaceOnUse">
<stop stop-color="#FDC38B"/>
<stop offset="0.506489" stop-color="#FD955D"/>
<stop offset="1" stop-color="#FD955D"/>
</linearGradient>
<linearGradient id="paint3_linear_1_169" x1="164.605" y1="427.963" x2="354.771" y2="318.17" gradientUnits="userSpaceOnUse">
<stop stop-color="#1B4A86"/>
<stop offset="0.0740944" stop-color="#1B4A86"/>
<stop offset="0.300745" stop-color="#1B4986"/>
<stop offset="0.456484" stop-color="#1B4986"/>
<stop offset="1" stop-color="#201071"/>
</linearGradient>
<linearGradient id="paint4_linear_1_169" x1="334.325" y1="95.6068" x2="173.713" y2="95.6068" gradientUnits="userSpaceOnUse">
<stop stop-color="#7D1831"/>
<stop offset="1" stop-color="#5C0000"/>
</linearGradient>
</defs>
</svg>
