<svg width="505" height="505" viewBox="0 0 505 505" fill="none" xmlns="http://www.w3.org/2000/svg">
<path fill-rule="evenodd" clip-rule="evenodd" d="M252.762 0.307064C113.626 0.307064 0.84129 113.097 0.84129 252.229C0.84129 391.359 113.626 504.159 252.762 504.159C391.898 504.159 504.7 391.359 504.7 252.229C504.7 113.097 391.898 0.307064 252.762 0.307064Z" fill="url(#paint0_linear_1_216)"/>
<path fill-rule="evenodd" clip-rule="evenodd" d="M157.495 308.291C167.65 303.599 188.849 296.998 191.068 281.239C192.315 272.252 192.396 263.465 192.412 261.573C192.476 252.988 192.25 244.197 191.44 234.995C202.939 256.402 221.919 270.079 249.499 269.505C268.82 269.105 285.825 253.037 296.886 231.734C295.412 242.955 294.619 253.676 294.327 264.318C294.327 264.799 294.425 268.239 294.57 271.891C295.089 287.624 312.466 298.932 327.867 304.265C288.384 373.079 200.121 374.572 157.495 308.291Z" fill="url(#paint1_linear_1_216)"/>
<path fill-rule="evenodd" clip-rule="evenodd" d="M165.832 156.94C166.221 156.813 166.642 156.721 167.064 156.693C171.374 156.411 174.549 160.89 176.72 168.071C176.737 168.124 176.753 168.181 176.769 168.236C176.769 168.198 176.769 168.16 176.769 168.119C176.98 168.404 177.19 168.691 177.433 168.989C178.632 149.602 185.21 115.852 187.981 107.557C194.235 102.385 201.947 91.7806 267.664 93.7394C275.311 91.5408 296.244 107.422 296.487 107.829C298.821 111.52 301.996 118.869 303.94 129.759C310.357 165.92 307.116 155.76 309.239 169.013C309.595 168.775 310.47 167.79 311.637 166.523C311.718 166.264 311.782 165.974 311.863 165.721C313.954 159.456 316.919 155.603 320.888 155.823C321.893 155.875 322.832 156.22 323.675 156.782C329.297 160.486 331.436 174.342 326.948 187.426C321.779 202.499 318.636 216.126 311.037 215.705C307.845 215.532 306.144 213.398 305.528 209.785C303.325 217.52 300.36 225.052 296.73 232.029C285.697 253.333 268.684 269.398 249.355 269.798C221.779 270.372 202.806 256.698 191.302 235.292C187.333 227.905 184.287 219.59 182.051 210.629C181.954 214.276 180.868 216.254 177.547 216.47C169.964 216.969 166.675 203.372 161.344 188.354C156.322 174.184 159.125 159.023 165.832 156.94Z" fill="url(#paint2_linear_1_216)"/>
<path fill-rule="evenodd" clip-rule="evenodd" d="M40.5262 388C44.247 370.386 50.8937 355.492 67.9248 344.08C97.8433 324.067 156.243 309.48 178.094 296.547C201.636 368.373 300.829 353.092 312.972 295.4C338.68 304.813 407.463 320.974 433.577 344.692C440.325 350.826 446.515 369.066 448.189 376.32L452.739 405.454C406.685 465.453 334.266 504.16 252.763 504.16C163.634 504.16 85.2941 457.853 40.5262 388Z" fill="url(#paint3_linear_1_216)"/>
<path fill-rule="evenodd" clip-rule="evenodd" d="M309.436 168.653C307.317 155.399 310.568 165.56 304.129 129.398C302.204 118.508 297.366 112.049 295.053 108.355C290.668 101.434 190.001 119.844 189.678 120.109C186.895 128.4 181.426 152.068 177.624 168.629C177.381 168.33 177.171 168.043 176.961 167.759C176.944 167.743 176.928 167.725 176.912 167.71C174.744 160.53 171.573 156.05 167.269 156.331C166.833 156.36 166.428 156.453 166.024 156.577C160.28 95.2969 192.38 56.1934 253.828 42.611C249.266 48.1459 249.363 50.6763 249.897 58.0864C268.729 46.5296 277.061 45.0491 287.788 45.7173C276.527 59.0652 274.699 64.5306 277.725 66.532C286.365 62.0843 287.885 58.3938 295.247 49.073C284.18 65.5223 324.369 115.51 321.101 155.462C312.72 155.462 315.083 164.827 309.436 168.653Z" fill="url(#paint4_linear_1_216)"/>
<defs>
<linearGradient id="paint0_linear_1_216" x1="-152.603" y1="50.4819" x2="-800.906" y2="50.4819" gradientUnits="userSpaceOnUse">
<stop stop-color="#C4F7FD"/>
<stop offset="1" stop-color="#6ADDFF"/>
</linearGradient>
<linearGradient id="paint1_linear_1_216" x1="-300.258" y1="268.249" x2="-316.977" y2="-48.9495" gradientUnits="userSpaceOnUse">
<stop stop-color="#FDC38B"/>
<stop offset="0.475452" stop-color="#FD955D"/>
<stop offset="1" stop-color="#FD955D"/>
</linearGradient>
<linearGradient id="paint2_linear_1_216" x1="-201.651" y1="15.0661" x2="-606.627" y2="15.0661" gradientUnits="userSpaceOnUse">
<stop stop-color="#FDC38B"/>
<stop offset="0.476069" stop-color="#FD955D"/>
<stop offset="1" stop-color="#FD955D"/>
</linearGradient>
<linearGradient id="paint3_linear_1_216" x1="-176.649" y1="250.48" x2="-699.521" y2="250.48" gradientUnits="userSpaceOnUse">
<stop stop-color="#1B4A86"/>
<stop offset="1" stop-color="#22006B"/>
</linearGradient>
<linearGradient id="paint4_linear_1_216" x1="-207.231" y1="-75.7706" x2="-396.422" y2="-75.7706" gradientUnits="userSpaceOnUse">
<stop stop-color="#7D1831"/>
<stop offset="1" stop-color="#5C0000"/>
</linearGradient>
</defs>
</svg>
