<svg width="504" height="505" viewBox="0 0 504 505" fill="none" xmlns="http://www.w3.org/2000/svg">
<path fill-rule="evenodd" clip-rule="evenodd" d="M251.919 0.30807C112.787 0.30807 -2.5208e-06 113.097 -2.5208e-06 252.231C-2.5208e-06 391.359 112.787 504.159 251.919 504.159C391.052 504.159 503.841 391.359 503.841 252.231C503.841 113.097 391.052 0.30807 251.919 0.30807Z" fill="url(#paint0_linear_1_227)"/>
<path fill-rule="evenodd" clip-rule="evenodd" d="M156.652 308.292C166.811 303.599 188.007 296.999 190.219 281.239C191.475 272.252 191.553 263.471 191.568 261.572C191.632 252.988 191.389 244.197 190.599 234.997C202.089 256.403 221.069 270.079 248.652 269.503C267.969 269.097 284.981 253.039 296.025 231.733C294.573 242.957 293.769 253.677 293.479 264.324C293.469 264.805 293.583 268.24 293.709 271.892C294.248 287.625 311.613 298.932 327.025 304.265C287.533 373.079 199.271 374.572 156.652 308.292Z" fill="url(#paint1_linear_1_227)"/>
<path fill-rule="evenodd" clip-rule="evenodd" d="M164.985 156.939C165.384 156.815 165.797 156.72 166.227 156.693C170.528 156.411 173.708 160.889 175.872 168.068C175.889 168.123 175.901 168.183 175.92 168.235C175.916 168.196 175.913 168.159 175.911 168.12C176.124 168.407 176.34 168.695 176.583 168.989C177.779 149.604 184.365 115.851 187.148 107.56C193.397 102.385 201.1 91.7839 266.825 93.7426C274.467 91.5399 295.399 107.421 295.655 107.828C297.98 111.521 301.157 118.869 303.089 129.763C309.508 165.923 306.271 155.761 308.397 169.016C308.656 168.84 309.199 168.26 309.924 167.467C310.093 166.883 310.251 166.271 310.433 165.72C312.512 159.457 315.485 155.604 319.46 155.823C320.459 155.877 321.388 156.221 322.241 156.785C327.853 160.484 329.993 174.341 325.507 187.425C320.336 202.5 317.193 216.127 309.597 215.707C305.839 215.501 304.925 212.963 305.059 208.328C302.817 216.569 299.735 224.616 295.891 232.028C284.844 253.335 267.832 269.395 248.516 269.799C220.929 270.372 201.949 256.697 190.459 235.292C186.493 227.907 183.431 219.591 181.204 210.628C181.119 214.28 180.02 216.257 176.704 216.473C169.108 216.967 165.828 203.373 160.501 188.355C155.479 174.187 158.277 159.024 164.985 156.939Z" fill="url(#paint2_linear_1_227)"/>
<path fill-rule="evenodd" clip-rule="evenodd" d="M39.672 387.999C43.388 370.385 50.0266 355.492 67.08 344.079C96.988 324.065 155.393 309.479 177.244 296.545C200.78 368.372 299.977 353.092 312.113 295.399C337.832 304.812 406.605 320.972 432.729 344.692C439.479 350.825 445.661 369.065 447.34 376.319L451.887 405.452C405.839 465.452 333.404 504.159 251.919 504.159C162.777 504.159 84.4507 457.852 39.672 387.999Z" fill="#6AB3F2"/>
<path fill-rule="evenodd" clip-rule="evenodd" d="M311.525 165.72C311.273 165.992 311.039 166.245 310.809 166.496C309.632 167.781 308.753 168.773 308.397 169.016C306.271 155.761 309.508 165.923 303.089 129.763C301.157 118.869 297.98 111.521 295.655 107.828C291.272 100.907 188.949 120.204 188.631 120.468C185.847 128.761 180.385 152.433 176.583 168.989C176.34 168.695 176.124 168.407 175.911 168.12C175.899 168.104 175.887 168.087 175.872 168.071C173.708 160.889 170.528 156.411 166.227 156.693C165.797 156.72 165.387 156.815 164.985 156.939C163.611 142.289 164.095 126.463 164.8 110.327C164.368 63.7373 216.428 45.4547 253.808 47.792C319.459 51.8934 331.652 96.784 321.613 156.772C315.632 156.772 313.061 161.095 311.525 165.72Z" fill="url(#paint3_linear_1_227)"/>
<defs>
<linearGradient id="paint0_linear_1_227" x1="503.841" y1="252.231" x2="-0.00402471" y2="252.231" gradientUnits="userSpaceOnUse">
<stop stop-color="#1B4A86"/>
<stop offset="1" stop-color="#22006B"/>
</linearGradient>
<linearGradient id="paint1_linear_1_227" x1="241.131" y1="364.025" x2="244.135" y2="118.841" gradientUnits="userSpaceOnUse">
<stop stop-color="#FDC38B"/>
<stop offset="0.360466" stop-color="#FD955D"/>
<stop offset="1" stop-color="#FD955D"/>
</linearGradient>
<linearGradient id="paint2_linear_1_227" x1="318.493" y1="181.66" x2="29.4252" y2="181.66" gradientUnits="userSpaceOnUse">
<stop stop-color="#FDC38B"/>
<stop offset="0.475452" stop-color="#FD955D"/>
<stop offset="1" stop-color="#FD955D"/>
</linearGradient>
<linearGradient id="paint3_linear_1_227" x1="324.72" y1="108.305" x2="164.109" y2="108.305" gradientUnits="userSpaceOnUse">
<stop stop-color="#7D1831"/>
<stop offset="1" stop-color="#5C0000"/>
</linearGradient>
</defs>
</svg>
