<svg xmlns="http://www.w3.org/2000/svg" viewBox="0 0 32 32">
  <!-- Envelope top flap -->
  <path fill="#96A9B2" d="M31.99 26.56c.12-.33-13.81-10.84-13.81-10.84a2.97 2.97 0 0 0-4.38 0S.09 26.22.21 26.54v.01a3.03 3.03 0 0 0 .82 1.19c.49.4 1.1.66 1.65.74h26.29a2.98 2.98 0 0 0 2.83-1.95l.02-.02z"/>
  
  <!-- Envelope main body -->
  <path fill="#B9C5C6" d="M16 14.51L.08 26.46V9.53c0-1.65 1.34-2.99 2.99-2.99h25.89c1.65 0 2.99 1.34 2.99 2.99v16.93L16 14.51z"/>
  
  <!-- Envelope top part -->
  <path fill="#EDECE6" d="M.26 8.49l13.6 10.68c1.72 1.27 2.62 1.29 4.32 0l13.6-10.68a3.008 3.008 0 0 0-2.68-1.8H2.94c-1.15.07-2.16.77-2.68 1.8z"/>
  
  <!-- Envelope inner flap -->
  <path fill="#DCE2E2" d="M.26 8.52c-.12.32 13.6 10.65 13.6 10.65c1.72 1.27 2.62 1.29 4.32 0c0 0 13.69-10.35 13.58-10.67A2.985 2.985 0 0 0 29.1 6.6H2.94a2.98 2.98 0 0 0-2.68 1.92z"/>
  
  <!-- @ Symbol -->
  <path fill="#597B91" d="M18.21 9.67h-2.41a.38.38 0 0 0-.38.38v1.36c0 .21.17.38.38.38h1.96c.21 0 .38.17.38.38v.73a.38.38 0 0 1-.38.38h-1.96a.38.38 0 0 0-.38.38v1.47c0 .21.17.38.38.38h2.58c.21 0 .38.17.38.38v.78a.38.38 0 0 1-.38.38h-4.73a.38.38 0 0 1-.38-.38v-7.37c0-.21.17-.38.38-.38h4.67c.23 0 .41.21.38.44l-.11.75a.384.384 0 0 1-.38.33z"/>
</svg>