<svg width="266" height="233" viewBox="0 0 266 233" fill="none" xmlns="http://www.w3.org/2000/svg">
<path d="M132.796 183.752C134.014 183.752 135.002 182.764 135.002 181.546C135.002 180.327 134.014 179.339 132.796 179.339C131.577 179.339 130.589 180.327 130.589 181.546C130.589 182.764 131.577 183.752 132.796 183.752Z" fill="#CFCFCF"/>
<path d="M68.6851 17.6104V27.2934" stroke="#ACB7CE" stroke-width="2.25188" stroke-linecap="round" stroke-linejoin="round"/>
<path d="M63.8206 22.4512H73.5261" stroke="#ACB7CE" stroke-width="2.25188" stroke-linecap="round" stroke-linejoin="round"/>
<path d="M178.913 78.6802C160.065 78.6802 140.879 77.9147 122.932 72.9154C105.322 68.0287 89.1541 58.5486 74.742 47.5819C65.3068 40.4436 56.7273 34.7461 44.477 35.6019C32.4928 36.2505 21.0325 40.7254 11.7799 48.3699C-3.80314 62.016 -1.46085 87.3046 4.77677 105.004C14.1446 131.734 42.6533 150.357 66.8831 162.404C94.8736 176.388 125.634 184.517 156.462 189.179C183.485 193.299 218.208 196.272 241.628 178.64C263.133 162.404 269.033 125.383 263.763 100.388C262.484 93.0038 258.553 86.3408 252.707 81.6524C237.597 70.596 215.056 77.9821 198.077 78.3421C191.772 78.4777 185.354 78.6353 178.913 78.6802Z" fill="#F5FAFF"/>
<path d="M148.424 4.41344C149.642 4.41344 150.63 3.42552 150.63 2.20672C150.63 0.98792 149.642 0 148.424 0C147.205 0 146.217 0.98792 146.217 2.20672C146.216 3.42552 147.205 4.41344 148.424 4.41344Z" fill="#ACB7CE"/>
<path d="M33.7588 176.253V185.936" stroke="#ACB7CE" stroke-width="2.25188" stroke-linecap="round" stroke-linejoin="round"/>
<path d="M28.917 181.095H38.6001" stroke="#ACB7CE" stroke-width="2.25188" stroke-linecap="round" stroke-linejoin="round"/>
<path d="M133.696 233C179.35 233 216.362 230.692 216.362 227.843C216.362 224.995 179.351 222.687 133.696 222.687C88.0408 222.687 51.0303 224.995 51.0303 227.843C51.0303 230.692 88.0408 233 133.696 233Z" fill="#E9F4FF"/>
<path d="M224.875 56.3415C225.032 55.3998 224.98 54.4352 224.728 53.5142C224.474 52.5936 224.023 51.7396 223.406 51.0109C222.789 50.2823 222.019 49.6968 221.154 49.2952L224.875 56.3415ZM224.875 56.3415L206.702 167.088L224.875 56.3415ZM200.151 172.393H200.149H57.3582C56.4338 172.393 55.5198 172.191 54.6803 171.803C53.8411 171.415 53.0962 170.848 52.4971 170.144C51.8979 169.438 51.4591 168.612 51.2111 167.721C50.963 166.829 50.9109 165.896 51.0593 164.983C51.0593 164.983 51.0593 164.983 51.0593 164.983L69.3218 54.237L69.322 54.2361C69.561 52.7447 70.3243 51.3869 71.4746 50.4084L71.3373 50.2471L71.4746 50.4084C72.6253 49.4295 74.0871 48.8937 75.5977 48.8974H75.5983H218.389C219.313 48.8974 220.226 49.0987 221.065 49.4874C221.902 49.8761 222.647 50.4428 223.245 51.1478C223.842 51.8529 224.278 52.6795 224.524 53.5705C224.768 54.4623 224.818 55.3957 224.666 56.3066L224.666 56.3072L206.493 167.054L206.493 167.054C206.249 168.555 205.476 169.918 204.312 170.899C203.147 171.877 201.672 172.409 200.151 172.393Z" fill="#ACB7CE" stroke="#ACB7CE" stroke-width="0.423636"/>
<path d="M201.907 45.7893L117.151 7.94628C114.652 6.83085 111.723 7.95179 110.607 10.4504L83.7444 70.6152C82.629 73.1138 83.7499 76.0433 86.2481 77.1587L171.005 115.001C173.504 116.117 176.434 114.996 177.548 112.498L204.411 52.3328C205.528 49.8342 204.407 46.9047 201.907 45.7893Z" fill="white" stroke="#BEC8DC" stroke-width="2.25188" stroke-linecap="round" stroke-linejoin="round"/>
<path d="M129.575 57.4447C131.806 54.314 135.051 52.0514 138.759 51.0397C142.468 50.0281 146.412 50.3293 149.924 51.8929C153.435 53.4566 156.298 56.1865 158.028 59.6196C159.757 63.0528 160.246 66.9782 159.413 70.7308" stroke="#ACB7CE" stroke-width="1.53128" stroke-linecap="round" stroke-linejoin="round"/>
<path d="M170.108 54.0451C171.39 54.0451 172.428 53.0063 172.428 51.7257C172.428 50.4446 171.39 49.4062 170.108 49.4062C168.827 49.4062 167.789 50.4446 167.789 51.7257C167.789 53.0067 168.827 54.0451 170.108 54.0451Z" fill="#ACB7CE"/>
<path d="M136.511 39.047C137.791 39.047 138.83 38.0087 138.83 36.7276C138.83 35.447 137.791 34.4082 136.511 34.4082C135.23 34.4082 134.191 35.447 134.191 36.7276C134.191 38.0087 135.23 39.047 136.511 39.047Z" fill="#ACB7CE"/>
<path d="M199.518 172.56H56.0297C54.2839 172.554 52.6114 171.855 51.3791 170.619C50.1463 169.383 49.4545 167.708 49.4545 165.962V64.786C49.4337 63.9082 49.5879 63.0351 49.9086 62.2179C50.2293 61.4003 50.7101 60.6555 51.3227 60.026C51.9349 59.3969 52.6669 58.8962 53.4752 58.5535C54.2835 58.2107 55.152 58.0328 56.0302 58.0303H108.296C109.509 58.0349 110.697 58.3734 111.73 59.0089C112.763 59.6448 113.601 60.5526 114.151 61.6333L121.604 76.2255C122.153 77.3078 122.99 78.2174 124.024 78.8528C125.057 79.4887 126.246 79.8264 127.46 79.8285H199.518C201.261 79.8285 202.935 80.5211 204.169 81.7543C205.401 82.9875 206.094 84.6601 206.094 86.4042V165.962C206.094 167.708 205.403 169.383 204.169 170.619C202.937 171.855 201.263 172.554 199.518 172.56Z" fill="white" stroke="#BEC8DC" stroke-width="2.25188" stroke-linecap="round" stroke-linejoin="round"/>
<path d="M177.258 83.4561C168.969 83.4514 160.865 85.9055 153.97 90.5079C147.075 95.1099 141.7 101.653 138.525 109.311C135.35 116.968 134.517 125.394 136.131 133.525C137.746 141.656 141.735 149.125 147.595 154.988C153.455 160.851 160.922 164.845 169.053 166.465C177.182 168.084 185.608 167.255 193.267 164.083C200.927 160.912 207.474 155.54 212.079 148.649C216.684 141.757 219.143 133.653 219.143 125.364C219.143 114.253 214.732 103.597 206.877 95.739C199.023 87.8797 188.369 83.462 177.258 83.4561Z" fill="white" stroke="#BEC8DC" stroke-width="2.25188" stroke-linecap="round" stroke-linejoin="round"/>
<path d="M207.242 155.581L218.411 166.75" stroke="#ACB7CE" stroke-width="2.25188" stroke-linecap="round" stroke-linejoin="round"/>
<path d="M217.148 161.324L213.68 164.954C212.124 166.582 212.182 169.16 213.808 170.716L243.922 199.504C245.548 201.06 248.129 201.002 249.685 199.374L253.155 195.744C254.711 194.118 254.652 191.537 253.024 189.981L222.912 161.195C221.285 159.638 218.704 159.697 217.148 161.324Z" fill="#ACB7CE"/>
<path d="M239.443 2.20703V11.9125" stroke="#ACB7CE" stroke-width="2.25188" stroke-linecap="round" stroke-linejoin="round"/>
<path d="M234.58 7.07129H244.285" stroke="#ACB7CE" stroke-width="2.25188" stroke-linecap="round" stroke-linejoin="round"/>
<path d="M167.146 114.85L187.816 135.519" stroke="#ACB7CE" stroke-width="2.25375" stroke-linecap="round" stroke-linejoin="round"/>
<path d="M167.146 135.52L187.815 114.85" stroke="#ACB7CE" stroke-width="2.25375" stroke-linecap="round" stroke-linejoin="round"/>
</svg>
