<svg width="24" height="21" viewBox="0 0 24 21" fill="none" xmlns="http://www.w3.org/2000/svg">
<path d="M16 19.5V17.5C16 16.4391 15.5786 15.4217 14.8284 14.6716C14.0783 13.9214 13.0609 13.5 12 13.5H5C3.93913 13.5 2.92172 13.9214 2.17157 14.6716C1.42143 15.4217 1 16.4391 1 17.5V19.5M17 9.5L19 11.5L23 7.5M12.5 5.5C12.5 7.70914 10.7091 9.5 8.5 9.5C6.29086 9.5 4.5 7.70914 4.5 5.5C4.5 3.29086 6.29086 1.5 8.5 1.5C10.7091 1.5 12.5 3.29086 12.5 5.5Z" stroke="#0B4266" stroke-width="2" stroke-linecap="round" stroke-linejoin="round"/>
</svg>
