<svg width="20" height="21" viewBox="0 0 20 21" fill="none" xmlns="http://www.w3.org/2000/svg">
<g id="Phone">
<path id="Icon" d="M18.3333 14.6V17.1C18.3343 17.3321 18.2867 17.5618 18.1938 17.7745C18.1008 17.9871 17.9644 18.178 17.7934 18.3349C17.6224 18.4918 17.4205 18.6112 17.2006 18.6856C16.9808 18.7599 16.7478 18.7876 16.5167 18.7667C13.9524 18.488 11.4892 17.6118 9.325 16.2083C7.31152 14.9289 5.60445 13.2218 4.325 11.2083C2.91665 9.03434 2.0402 6.55916 1.76667 3.98334C1.74584 3.75289 1.77323 3.52064 1.84708 3.30136C1.92094 3.08208 2.03964 2.88058 2.19564 2.70969C2.35163 2.5388 2.5415 2.40226 2.75316 2.30877C2.96481 2.21528 3.19362 2.16689 3.425 2.16667H5.925C6.32942 2.16269 6.72149 2.3059 7.02813 2.56961C7.33478 2.83332 7.53506 3.19954 7.59167 3.6C7.69719 4.40006 7.89288 5.18561 8.175 5.94167C8.28712 6.23994 8.31139 6.5641 8.24492 6.87574C8.17846 7.18737 8.02405 7.47343 7.8 7.7L6.74167 8.75833C7.92796 10.8446 9.65538 12.572 11.7417 13.7583L12.8 12.7C13.0266 12.4759 13.3126 12.3215 13.6243 12.2551C13.9359 12.1886 14.2601 12.2129 14.5583 12.325C15.3144 12.6071 16.0999 12.8028 16.9 12.9083C17.3048 12.9654 17.6745 13.1693 17.9388 13.4812C18.2031 13.7932 18.3435 14.1913 18.3333 14.6Z" stroke="black" stroke-width="1.5" stroke-linecap="round" stroke-linejoin="round"/>
</g>
</svg>
