<svg width="43" height="43" viewBox="0 0 43 43" fill="none" xmlns="http://www.w3.org/2000/svg">
<g id="shifts-open-svgrepo-com 1">
<g id="Vector">
<path d="M8.0625 11.1979C8.0625 9.46627 9.46627 8.0625 11.1979 8.0625H16.5729C17.315 8.0625 17.9167 7.46088 17.9167 6.71875C17.9167 5.97662 17.315 5.375 16.5729 5.375H11.1979C7.982 5.375 5.375 7.982 5.375 11.1979V31.8021C5.375 35.0179 7.982 37.625 11.1979 37.625H16.5729C17.315 37.625 17.9167 37.0234 17.9167 36.2812C17.9167 35.5391 17.315 34.9375 16.5729 34.9375H11.1979C9.46627 34.9375 8.0625 33.5337 8.0625 31.8021V11.1979Z" fill="#F47E4A"/>
<path d="M26.4221 5.375C25.68 5.375 25.0783 5.97662 25.0783 6.71875C25.0783 7.46088 25.68 8.0625 26.4221 8.0625H31.8021C33.5337 8.0625 34.9375 9.46627 34.9375 11.1979V31.8021C34.9375 33.5337 33.5337 34.9375 31.8021 34.9375H26.4221C25.68 34.9375 25.0783 35.5391 25.0783 36.2812C25.0783 37.0234 25.68 37.625 26.4221 37.625H31.8021C35.0179 37.625 37.625 35.0179 37.625 31.8021V11.1979C37.625 7.982 35.0179 5.375 31.8021 5.375H26.4221Z" fill="#F47E4A"/>
<path d="M22.3958 12.0937C22.3958 11.3516 21.7942 10.75 21.0521 10.75C20.31 10.75 19.7083 11.3516 19.7083 12.0937V22.8437C19.7083 23.5859 20.31 24.1875 21.0521 24.1875H29.1146C29.8567 24.1875 30.4583 23.5859 30.4583 22.8437C30.4583 22.1016 29.8567 21.5 29.1146 21.5H22.3958V12.0937Z" fill="#F47E4A"/>
</g>
</g>
</svg>
