<svg width="20" height="20" viewBox="0 0 20 20" fill="none" xmlns="http://www.w3.org/2000/svg">
<g id="tick-circle-svgrepo-com 1">
<path id="Vector" opacity="0.4" d="M10 18.3334C14.6023 18.3334 18.3333 14.6024 18.3333 10.0001C18.3333 5.39771 14.6023 1.66675 10 1.66675C5.39762 1.66675 1.66666 5.39771 1.66666 10.0001C1.66666 14.6024 5.39762 18.3334 10 18.3334Z" 
fill="#CFF7D3"/>
<path id="Vector_2" d="M8.81625 12.9834C8.64959 12.9834 8.49125 12.9167 8.37459 12.8001L6.01621 10.4417C5.77454 10.2001 5.77454 9.80008 6.01621 9.55841C6.25788 9.31675 6.65788 9.31675 6.89954 9.55841L8.81625 11.4751L13.0996 7.19175C13.3413 6.95008 13.7413 6.95008 13.9829 7.19175C14.2246 7.43341 14.2246 7.83341 13.9829 8.07508L9.25792 12.8001C9.14125 12.9167 8.98292 12.9834 8.81625 12.9834Z"
 fill="#14AE5C"/>
</g>
</svg>
