<svg width="222" height="171" viewBox="0 0 222 171" fill="white" xmlns="http://www.w3.org/2000/svg">
<g id="Frame 11">
<g id="Group 2">
<path id="Vector" opacity="0.06" d="M179.424 168.629H14.7481C2.17529 134.264 3.12923 95.3514 12.6052 53.5738C18.1464 29.1439 36.4133 9.35629 60.5079 2.50227C88.7847 -5.54155 120.029 5.10999 126.004 44.6424C126.004 65.5912 142.986 82.5734 163.934 82.5734H182.609C203.558 82.5734 220.54 99.5557 220.54 120.504V127.514C220.54 150.221 202.132 168.629 179.424 168.629Z" fill="#0B4266"/>
<g id="Group">
<path id="Vector_2" d="M36.7448 50.1783V53.7659C36.4124 53.2527 35.7379 52.5048 35.0633 53.546C33.5775 55.8383 36.6323 59.2451 36.6323 59.2451L35.8454 69.8075C40.4056 73.0138 44.4283 72.6961 48.5095 69.9394L48.5731 69.8954L47.2485 62.0066C47.5467 62.0896 47.8448 62.1287 48.1331 62.1287C50.01 62.1287 51.6279 60.5109 51.6279 58.4092V48.5848L36.7448 50.1783Z" fill="#F2BBA2"/>
<g id="Group_2">
<path id="Vector_3" d="M48.5728 69.8953L47.2483 62.0065C47.5465 62.0895 47.8445 62.1286 48.1329 62.1286C50.0097 62.1286 51.6277 60.5108 51.6277 58.4091V48.5847" stroke="black" stroke-width="0.185292" stroke-miterlimit="10"/>
<path id="Vector_4" d="M45.4797 51.1901C49.3691 51.6833 53.0821 49.3292 54.231 45.5807C54.9455 43.249 55.1741 41.0942 54.2935 40.1465C51.6252 37.2744 44.2441 39.8881 41.8287 41.3053C39.7152 42.5454 35.4279 44.2494 34.7408 46.6987C34.5574 47.3527 34.5482 48.068 34.7693 48.7105C36.2399 52.9857 36.8973 56.1285 36.8973 56.1285L37.9292 53.112C38.1608 51.7472 39.2132 50.7079 40.5129 50.5603L45.4797 51.1901Z" fill="black"/>
<path id="Vector_5" d="M44.8372 61.0179C44.8372 61.0179 46.3638 61.8843 47.2484 62.0066" stroke="black" stroke-width="0.24706" stroke-miterlimit="10" stroke-linecap="round" stroke-linejoin="round"/>
</g>
</g>
<path id="Vector_6" d="M221.572 167.917H0.737305V171H221.572V167.917Z" fill="black"/>
<path id="Vector_7" d="M207.525 30.6835V35.1524H99.2295V30.6835C99.2295 27.3015 101.971 24.5649 105.348 24.5649H201.407C204.783 24.5649 207.525 27.3015 207.525 30.6835Z" fill="#082F48" stroke="black" stroke-width="0.24706" stroke-miterlimit="10"/>
<path id="Vector_8" d="M207.525 35.1523V85.9873C207.525 89.3693 204.784 92.1114 201.407 92.1114H105.348C101.972 92.1114 99.2295 89.3693 99.2295 85.9873V35.1523H207.525Z" fill="white" stroke="black" stroke-width="0.24706" stroke-miterlimit="10" stroke-linecap="round" stroke-linejoin="round"/>
<path id="Vector_9" d="M208.578 48.8378C215.317 48.8059 221.032 43.474 221.093 36.7347C221.094 36.6856 221.094 36.6365 221.094 36.5873C221.094 28.2082 214.593 21.3278 206.376 20.75C202.728 15.206 196.462 11.5581 189.329 11.5581C180.787 11.5581 173.455 16.7951 170.403 24.2353C164.191 24.9215 159.37 30.1946 159.37 36.5873C159.37 43.4497 164.95 49.0117 171.812 49.0117L208.578 48.8378Z" fill="white" stroke="black" stroke-width="0.24706" stroke-miterlimit="10"/>
<path id="Vector_10" d="M107.238 31.7643C108.215 31.7643 109.006 30.9727 109.006 29.9963C109.006 29.0198 108.215 28.2283 107.238 28.2283C106.262 28.2283 105.47 29.0198 105.47 29.9963C105.47 30.9727 106.262 31.7643 107.238 31.7643Z" fill="white"/>
<path id="Vector_11" d="M114.739 31.7643C115.715 31.7643 116.507 30.9727 116.507 29.9963C116.507 29.0198 115.715 28.2283 114.739 28.2283C113.763 28.2283 112.971 29.0198 112.971 29.9963C112.971 30.9727 113.763 31.7643 114.739 31.7643Z" fill="white"/>
<path id="Vector_12" d="M121.581 31.7643C122.558 31.7643 123.349 30.9727 123.349 29.9963C123.349 29.0198 122.558 28.2283 121.581 28.2283C120.605 28.2283 119.813 29.0198 119.813 29.9963C119.813 30.9727 120.605 31.7643 121.581 31.7643Z" fill="white"/>
<path id="Vector_13" d="M27.585 145.339L22.325 167.903H73.2949L68.0267 146.929L27.585 145.339Z" fill="#06263A"/>
<path id="Vector_14" d="M22.7344 153.098L25.5202 156.517C27.3142 155.752 28.3538 154.138 28.3043 152.158L25.4808 149.459" fill="#F2BBA2"/>
<path id="Vector_15" d="M95.9701 81.511C95.9701 81.511 94.3468 72.1243 101.559 70.6699C102.342 70.5121 102.587 71.2272 102.553 72.0089C102.507 73.0296 101.209 74.4109 99.7557 75.1744C99.913 76.1747 104.223 76.2286 106.387 73.0492C108.979 69.2389 111.233 69.1984 110.703 71.9494C109.902 76.1106 106.441 78.96 103.542 79.3189C101.41 79.5828 100.717 82.3956 100.717 82.3956" fill="#F2BBA2"/>
<path id="Vector_16" d="M68.6679 98.5059C63.9945 110.07 68.0268 146.929 68.0268 146.929C52.2965 151.949 27.5851 145.339 27.5851 145.339C29.2908 129.938 20.8987 96.7351 20.8987 96.7351L13.8543 118.22L25.9879 148.787L21.9963 154.076L3.17628 123.318C0.947709 119.676 0.458806 115.23 1.84255 111.191L12.0977 81.2536C13.0104 78.5894 14.8782 76.4442 17.2717 75.3112L34.7476 67.0391C38.9822 70.0457 45.676 70.3064 50.1329 67.0391L69.8823 75.4124C72.6626 76.4653 74.8287 78.8783 75.7336 81.9304L81.6912 102.025L94.6184 81.2534L102.906 82.7373L88.7569 115.359C86.5598 120.424 80.0285 120.666 77.5211 115.775L66.5053 94.2878" fill="#0B4266"/>
<path id="Vector_17" d="M177.028 82.5843H129.726C126.204 82.5843 123.35 79.7295 123.35 76.2079C123.35 72.6863 126.204 69.8315 129.726 69.8315H177.028C180.55 69.8315 183.405 72.6864 183.405 76.2079C183.405 79.7295 180.55 82.5843 177.028 82.5843Z" fill="white" stroke="black" stroke-width="0.24706" stroke-miterlimit="10" stroke-linecap="round" stroke-linejoin="round"/>
<path id="Vector_18" d="M177.028 95.3371H129.726C126.204 95.3371 123.35 92.4823 123.35 88.9607C123.35 85.4391 126.204 82.5844 129.726 82.5844H177.028C180.55 82.5844 183.405 85.4392 183.405 88.9607C183.405 92.4823 180.55 95.3371 177.028 95.3371Z" fill="white" stroke="black" stroke-width="0.24706" stroke-miterlimit="10" stroke-linecap="round" stroke-linejoin="round"/>
<path id="Vector_19" d="M177.028 108.09H129.726C126.204 108.09 123.35 105.235 123.35 101.714C123.35 98.192 126.204 95.3373 129.726 95.3373H177.028C180.55 95.3373 183.405 98.1921 183.405 101.714C183.405 105.235 180.55 108.09 177.028 108.09Z" fill="white" stroke="black" stroke-width="0.24706" stroke-miterlimit="10" stroke-linecap="round" stroke-linejoin="round"/>
<path id="Vector_20" d="M132.686 79.0758C134.27 79.0758 135.554 77.7918 135.554 76.2079C135.554 74.6241 134.27 73.3401 132.686 73.3401C131.102 73.3401 129.818 74.6241 129.818 76.2079C129.818 77.7918 131.102 79.0758 132.686 79.0758Z" fill="#F47E4A"/>
<path id="Vector_21" d="M140.678 79.0758C142.262 79.0758 143.546 77.7918 143.546 76.2079C143.546 74.6241 142.262 73.3401 140.678 73.3401C139.094 73.3401 137.81 74.6241 137.81 76.2079C137.81 77.7918 139.094 79.0758 140.678 79.0758Z" fill="#F47E4A"/>
<path id="Vector_22" d="M132.686 91.8286C134.27 91.8286 135.554 90.5446 135.554 88.9608C135.554 87.3769 134.27 86.0929 132.686 86.0929C131.102 86.0929 129.818 87.3769 129.818 88.9608C129.818 90.5446 131.102 91.8286 132.686 91.8286Z" fill="#F47E4A"/>
<path id="Vector_23" d="M140.678 91.8286C142.262 91.8286 143.546 90.5446 143.546 88.9608C143.546 87.3769 142.262 86.0929 140.678 86.0929C139.094 86.0929 137.81 87.3769 137.81 88.9608C137.81 90.5446 139.094 91.8286 140.678 91.8286Z" fill="#F47E4A"/>
<path id="Vector_24" d="M132.686 104.581C134.27 104.581 135.554 103.297 135.554 101.713C135.554 100.13 134.27 98.8456 132.686 98.8456C131.102 98.8456 129.818 100.13 129.818 101.713C129.818 103.297 131.102 104.581 132.686 104.581Z" fill="#F47E4A"/>
<path id="Vector_25" d="M140.678 104.581C142.262 104.581 143.546 103.297 143.546 101.713C143.546 100.13 142.262 98.8456 140.678 98.8456C139.094 98.8456 137.81 100.13 137.81 101.713C137.81 103.297 139.094 104.581 140.678 104.581Z" fill="#F47E4A"/>
<path id="Vector_26" d="M195.294 30.5035L192.495 26.245L189.696 21.9865L186.826 26.1977L183.956 30.4091L187.057 30.429V42.0823H192.258V30.4837L195.294 30.5035Z" fill="#F47E4A"/>
<path id="Vector_27" d="M68.6677 98.506L65.4666 91.8285" stroke="black" stroke-width="0.24706" stroke-miterlimit="10"/>
</g>
</g>
</svg>
