<svg
            xmlns="http://www.w3.org/2000/svg"
            width="32"
            height="32"
            viewBox="0 0 12 12"
            fill="none"
          >
            <path
              d="M6.00098 1C8.76248 1 11.001 3.2385 11.001 6C11.001 8.7615 8.76248 11 6.00098 11C5.11737 11.0014 4.24931 10.7676 3.48598 10.3225L1.00298 11L1.67898 8.516C1.23353 7.75244 0.999507 6.884 1.00098 6C1.00098 3.2385 3.23948 1 6.00098 1ZM4.29698 3.65L4.19698 3.654C4.13224 3.65794 4.06897 3.67495 4.01098 3.704C3.95674 3.73471 3.90723 3.77311 3.86398 3.818C3.80398 3.8745 3.76998 3.9235 3.73348 3.971C3.54854 4.21145 3.44897 4.50666 3.45048 4.81C3.45148 5.055 3.51548 5.2935 3.61548 5.5165C3.81998 5.9675 4.15648 6.445 4.60048 6.8875C4.70748 6.994 4.81248 7.101 4.92548 7.2005C5.47718 7.68623 6.13461 8.03652 6.84548 8.2235L7.12948 8.267C7.22198 8.272 7.31448 8.265 7.40748 8.2605C7.5531 8.25298 7.69529 8.21355 7.82398 8.145C7.88946 8.11127 7.95336 8.07457 8.01548 8.035C8.01548 8.035 8.03698 8.021 8.07798 7.99C8.14548 7.94 8.18698 7.9045 8.24298 7.846C8.28448 7.803 8.32048 7.7525 8.34798 7.695C8.38698 7.6135 8.42598 7.458 8.44198 7.3285C8.45398 7.2295 8.45048 7.1755 8.44898 7.142C8.44698 7.0885 8.40248 7.033 8.35398 7.0095L8.06298 6.879C8.06298 6.879 7.62798 6.6895 7.36198 6.5685C7.33415 6.55635 7.30432 6.5494 7.27398 6.548C7.23977 6.54449 7.20521 6.54834 7.17261 6.55929C7.14001 6.57024 7.11013 6.58804 7.08498 6.6115C7.08248 6.6105 7.04898 6.639 6.68748 7.077C6.66673 7.10488 6.63815 7.12595 6.60538 7.13753C6.57262 7.1491 6.53714 7.15066 6.50348 7.142C6.47091 7.13327 6.439 7.12224 6.40798 7.109C6.34598 7.083 6.32448 7.073 6.28198 7.055C5.99502 6.92977 5.72933 6.76057 5.49448 6.5535C5.43148 6.4985 5.37298 6.4385 5.31298 6.3805C5.11628 6.19212 4.94485 5.979 4.80298 5.7465L4.77348 5.699C4.75229 5.66708 4.73516 5.63265 4.72248 5.5965C4.70348 5.523 4.75298 5.464 4.75298 5.464C4.75298 5.464 4.87448 5.331 4.93098 5.259C4.98598 5.189 5.03248 5.121 5.06248 5.0725C5.12148 4.9775 5.13998 4.88 5.10898 4.8045C4.96898 4.4625 4.82398 4.122 4.67498 3.784C4.64548 3.717 4.55798 3.669 4.47848 3.6595C4.45148 3.6565 4.42448 3.6535 4.39748 3.6515C4.33034 3.64816 4.26305 3.64883 4.19598 3.6535L4.29698 3.65Z"
              fill="#25D366"
            />
          </svg>