<svg width="24" height="25" viewBox="0 0 24 25" fill="white" xmlns="http://www.w3.org/2000/svg">
<g id="work">
<path id="Vector" d="M19.2 7.28947C19.722 7.28947 20.145 7.47895 20.478 7.84842C20.82 8.23684 21 8.66316 21 9.18421V19.6053C21 20.1263 20.82 20.5526 20.478 20.9411C20.145 21.3105 19.722 21.5 19.2 21.5H4.8C4.278 21.5 3.855 21.3105 3.522 20.9411C3.18 20.5526 3 20.1263 3 19.6053V9.18421C3 8.66316 3.18 8.23684 3.522 7.84842C3.855 7.47895 4.278 7.28947 4.8 7.28947H8.4V5.39474C8.4 4.84526 8.58 4.4 8.922 4.04947C9.255 3.68947 9.678 3.5 10.2 3.5H13.8C14.322 3.5 14.745 3.68947 15.078 4.04947C15.42 4.4 15.6 4.84526 15.6 5.39474V7.28947H19.2ZM4.8 9.18421V19.6053H19.2V9.18421H4.8ZM13.8 7.28947V5.39474H10.2V7.28947H13.8Z" fill="#0B4266"/>
</g>
</svg>
